<svg width="50" height="50" viewBox="0 0 50 50" fill="none" xmlns="http://www.w3.org/2000/svg">
    <rect width="50" height="50" rx="8" fill="#FFDD00"/>
    <path fill-rule="evenodd" clip-rule="evenodd" d="M22.9165 10.4167C20.6153 10.4167 18.7498 12.2822 18.7498 14.5834V18.75H14.5832C12.282 18.75 10.4165 20.6155 10.4165 22.9167V27.0834C10.4165 29.3846 12.282 31.25 14.5832 31.25H18.7498V35.4167C18.7498 37.7179 20.6153 39.5834 22.9165 39.5834H27.0832C29.3844 39.5834 31.2498 37.7179 31.2498 35.4167V31.25H35.4165C37.7178 31.25 39.5832 29.3846 39.5832 27.0834V22.9167C39.5832 20.6155 37.7178 18.75 35.4165 18.75H31.2498V14.5834C31.2498 12.2822 29.3844 10.4167 27.0832 10.4167H22.9165ZM22.9165 14.5834H27.0832V19.7917C27.0832 21.5175 28.4823 22.9167 30.2082 22.9167H35.4165V27.0834H30.2082C28.4823 27.0834 27.0832 28.4825 27.0832 30.2084V35.4167H22.9165V30.2084C22.9165 28.4825 21.5173 27.0834 19.7915 27.0834H14.5832V22.9167H19.7915C21.5173 22.9167 22.9165 21.5175 22.9165 19.7917V14.5834Z" fill="#D10A11"/>
    <path fill-rule="evenodd" clip-rule="evenodd" d="M41.6668 2.08331C45.1187 2.08331 47.9168 4.88154 47.9168 8.33331V41.6666C47.9168 45.1185 45.1187 47.9166 41.6668 47.9166H8.3335C4.88173 47.9166 2.0835 45.1185 2.0835 41.6666V8.33331C2.0835 4.88154 4.88173 2.08331 8.3335 2.08331H41.6668ZM41.6668 6.24998C42.8175 6.24998 43.7502 7.18273 43.7502 8.33331V41.6666C43.7502 42.8173 42.8175 43.75 41.6668 43.75H8.3335C7.18291 43.75 6.25016 42.8173 6.25016 41.6666V8.33331C6.25016 7.18273 7.18291 6.24998 8.3335 6.24998H41.6668Z" fill="#FFDD00"/>
</svg>
